<svg xmlns="http://www.w3.org/2000/svg" xmlns:xlink="http://www.w3.org/1999/xlink" version="1.1" id="Layer_1" x="0px" y="0px" style="enable-background:new 0 0 250 150;" xml:space="preserve" viewBox="64.68 33.4 120.02 83.2">
<style type="text/css">
	.st0{fill:#296D8F;}
	.st1{fill:#013246;}
	.st2{fill:#003143;}
	.st3{fill:none;stroke:#013246;stroke-width:1.2422;stroke-linecap:round;stroke-linejoin:round;stroke-miterlimit:10;}
</style>
<g>
	<polygon class="st0" points="159.7,37.4 139.2,55.7 118.8,37.4 115.4,37.4 118.9,40.5 139.2,58.5 159.4,40.5 163,37.4  "/>
	<path class="st1" d="M184.7,33.4v83.2h-11.1V50.1l-34.5,30.7l-34.5-30.7v11.3c0,3.7,0.1,7.5,0,11.2h0c-6.1,0-11.1-5-11.1-11.1v-28   l11.1,0.2l34.5,30.9l34.5-30.9L184.7,33.4z"/>
	<path class="st2" d="M101.4,72.5c0,0-0.1,0-0.2,0C101.3,72.5,101.4,72.4,101.4,72.5z"/>
	<path class="st2" d="M104.3,72.2l-0.2,0.2l-0.3,0.3c-0.2-0.1-0.3-0.1-0.5-0.2c-0.2-0.1-2.7-1.2-2.9-1.2c0,0,0.9-0.3,1.7-0.5   l1.2,0.8L104.3,72.2z"/>
	<path class="st2" d="M82.3,74.3C82.3,74.3,82.3,74.3,82.3,74.3C82.3,74.3,82.3,74.3,82.3,74.3z"/>
	<path class="st2" d="M97.3,79.1C97.3,79.1,97.3,79.1,97.3,79.1C97.3,79.1,97.3,79.1,97.3,79.1z"/>
	<g>
		<g>
			<path class="st3" d="M101,104.4c5.1-6.8-0.6-13.9-3.3-20.4c-2-5-1-10.8-0.4-13.4c0-0.1,0.2-0.1,0.2,0c-0.1,2.2,0.5,6.4,5.7,8.2     c7.2,2.4,20.3-3.3,25.9,6.7"/>
			<path class="st3" d="M97.4,69.3c0,0,2.3,9.9-13.6,9.5c-15.9-0.4-18.5,6.1-18.5,6.1"/>
			<path class="st3" d="M97.1,81.8c0,0,5.9-1.3,8.5,3c2.7,4.3,5.9,5.1,7.1,4.4"/>
			<path class="st3" d="M99.1,87.1c0,0-0.6,6.5-6.1,8.7"/>
			<path class="st3" d="M105.8,79.4c0,0-0.9,3.1,8.8,6c0,0,2.9,1.1,3.4,3.4"/>
			<path class="st3" d="M67.1,77.5c0,0,6.5-2.3,11.9,1.5"/>
			<path class="st3" d="M88.7,78.7c0,0,1.8,3-6,5.5c-7.9,2.5-6.1,4.5-6.1,4.5"/>
		</g>
		<path class="st1" d="M97.7,73.5H97c-0.3,0-0.6-0.3-0.6-0.6v-4.1c0-0.3,0.3-0.6,0.6-0.6h0.7c0.3,0,0.6,0.3,0.6,0.6v4.1    C98.3,73.2,98,73.5,97.7,73.5z"/>
	</g>
</g>
</svg>